<svg width="239" height="99" viewBox="0 0 239 99" xmlns="http://www.w3.org/2000/svg">
    <path d="m84.669 74.101.088.237.113.348c.495 1.657.46 3.592-.118 5.789l-.114.414-.05.157.21.02c.628.056 1.305.101 2.027.137l.551.024 1.454.045.522.01c1.291-6.029 6.166-10.278 12.994-10.278 7.22 0 12.2 5.22 12.2 12.432 0 1.39-.843 2.229-2.609 2.229H93.993c.237 5.01 4.19 8.419 9.09 8.419 2.583 0 5.086-.813 7.326-3.672.896-.944 2.187-.813 3.03.026l.317.289c.87.865.895 1.81.158 2.78-2.82 3.855-6.851 5.376-10.83 5.376-7.84 0-13.36-5.776-14.008-12.904l.532.007c-2.356-.028-4.407-.136-6.165-.33l-.472-.055-.284-.04-.24.45a42.282 42.282 0 0 1-1.714 2.842l-.162.245-.16.242-.647.94c-4.993 7.082-10.152 10.277-14.37 7.988l-.204-.115-.264-.164c-3.75-2.472-4.851-9.06-3.473-18.49l.074-.49.025-.159-.372.257a21.71 21.71 0 0 0-1.083.82 2.369 2.369 0 0 1-3.32-.345 2.342 2.342 0 0 1 .347-3.305c1.628-1.313 3.167-2.31 4.57-2.739 3.138-.96 5.252 1.177 4.74 4.71l-.035.218-.103.612-.183 1.193c-1.123 7.812-.284 12.798 1.482 13.837 1.067.63 3.232-.445 5.91-3.47l.23-.264.584-.697a40.104 40.104 0 0 0 2.142-2.914l.316-.477.328-.508c.143-.224.28-.445.413-.662l.195-.324.232-.395-.2-.089c-5.854-2.792-6.584-12.4-.649-14.039 3.032-.837 6.318.64 7.573 3.832zm-44.774-3.097c7.984 0 14.097 6.19 14.097 13.848 0 7.815-6.14 14.057-14.097 14.057-7.932 0-14.071-6.242-14.071-14.057 0-7.658 6.113-13.848 14.07-13.848zM5.323 60.225c1.423 0 2.082.761 2.082 2.23v30.894h14.202c1.476 0 2.24.76 2.24 2.203v.499c0 1.442-.764 2.203-2.24 2.203H4.453c-1.449 0-2.213-.76-2.213-2.203V62.455c0-1.469.764-2.23 2.213-2.23zm145.099 33.26c2.255 0 3.683.74 3.683 2.056 0 1.28-1.428 2.056-3.683 2.056-2.278 0-3.683-.775-3.683-2.056 0-1.316 1.405-2.056 3.683-2.056zm-7.331-6.72v4.159h1.582v1.292h-1.582v5.37h-1.558V86.764h1.558zm7.33 7.907c-1.428 0-2.148.293-2.148.87 0 .575.72.869 2.149.869 1.428 0 2.148-.294 2.148-.87 0-.576-.72-.87-2.148-.87zm-11.84-7.073v1.574c0 1.95.768 3.924 2.515 4.77l-.945 1.222c-1.133-.576-1.888-1.586-2.349-2.914-.472 1.375-1.286 2.515-2.514 3.114l-.933-1.257c1.83-.846 2.656-2.926 2.656-4.935v-1.574h1.57zM39.895 75.646c-5.218 0-9.012 3.987-9.012 9.206 0 5.429 3.794 9.363 9.012 9.363 5.244 0 9.038-3.934 9.038-9.363 0-5.22-3.794-9.206-9.038-9.206zm114.104 11.13v2.514h1.44v1.27H154v2.702h-1.558v-6.486h1.558zm-3.223.623v3.254h-3.4v.94c1.76 0 2.963-.082 4.32-.329l.13 1.246c-1.499.282-2.903.329-5.064.329h-.932v-3.337h3.411v-.858h-3.423V87.4h4.958zm-7.19-15.753v10.857h-1.557V71.646h1.558zm21.758 0v10.857h-1.559V71.646h1.559zm10.907 6.932v3.913h-1.558v-2.679h-5.855v-1.234h7.413zm-28.096.4v2.08h6.115v1.233h-7.673v-3.313h1.558zm33.22-.306v2.386h5.95v1.233h-7.508v-3.619h1.558zm-79.45-3.419c-3.848 0-6.826 2.308-7.695 5.98h14.809c-.606-3.567-3.241-5.98-7.115-5.98zm-23.566-.455c-1.186.328-.893 4.09 1.351 5.235l.186.087.049.017.137-.431c.49-1.63.538-2.907.22-3.813-.33-.931-1.15-1.314-1.943-1.095zm83.644-2.224v4.183h-3.53v1.95c1.653 0 3.034-.105 4.557-.352l.165 1.257c-1.794.318-3.353.376-5.336.376h-.98v-4.453h3.53v-1.727h-3.542v-1.234h5.136zm-25.346-.058v2.62h2.267v-2.62h1.546v7.46h-5.36v-7.46h1.547zm50.396-.846v7.766h-1.57V71.67h1.57zm-48.13 4.676h-2.266v2.397h2.267v-2.397zm9.303-4.383v2.597h5.95v1.234h-3.022v1.292h4.132v1.234h-9.834v-1.234h4.144v-1.292h-2.928v-3.83h1.558zm28.025-.293v6.427h-1.558v-2.609h-1.605v-1.245h1.605V71.67h1.558zm-2.88.587v1.234h-2.113c.035 1.234.779 2.538 2.455 3.102l-.755 1.21c-1.193-.388-2.007-1.14-2.467-2.127-.484 1.081-1.323 1.927-2.598 2.338l-.79-1.222c1.758-.599 2.526-1.95 2.561-3.301h-2.137v-1.234h5.844zm7.768.094c1.664 0 2.951 1.152 2.951 2.75 0 1.574-1.287 2.737-2.951 2.737-1.665 0-2.963-1.163-2.963-2.737 0-1.598 1.298-2.75 2.963-2.75zm0 1.34c-.803 0-1.44.517-1.44 1.41 0 .893.637 1.398 1.44 1.398.814 0 1.428-.505 1.428-1.398 0-.893-.614-1.41-1.428-1.41zm-64.775-54.72c3.32 0 6.245 1.154 8.485 3.226v-.42c0-1.442.817-2.15 2.214-2.15h.553c1.476 0 2.213.708 2.213 2.15v23.027c0 8.629-5.639 13.245-13.386 13.245-4.374 0-8.616-1.338-11.357-4.275-1.054-.944-1.37-2.098-.685-2.99l.606-.813c.764-1.023 1.66-1.154 2.609-.603 2.503 2.649 5.19 4.039 8.827 4.039 4.822 0 8.406-2.912 8.406-8.603v-2.281c-2.24 2.098-5.19 3.252-8.485 3.252-7.404 0-13.254-5.927-13.254-13.454 0-7.423 5.85-13.35 13.254-13.35zm54.915 0c4.69 0 8.801 1.967 10.935 5.455.58 1.023.343 2.046-.711 2.78l-.553.42c-.975.682-2.161.367-2.767-.34-1.713-2.23-3.926-3.646-7.194-3.646-4.98 0-8.722 4.012-8.722 9.179 0 5.35 3.742 9.389 8.88 9.389 3.32 0 5.903-1.652 7.378-4.301.58-.787 1.66-1.233 2.74-.603l.66.393c1.212.734 1.528 1.678.87 2.78-2.188 4.039-6.404 6.4-11.516 6.4-7.932 0-14.071-6.243-14.071-14.058 0-7.658 6.113-13.848 14.07-13.848zm28.96 0c3.372 0 6.323 1.207 8.563 3.357v-.55c0-1.522.633-2.151 2.161-2.151h.659c1.528 0 2.16.63 2.16 2.15V44.07c0 1.495-.632 2.15-2.16 2.15h-.659c-1.528 0-2.16-.655-2.16-2.15v-.603c-2.267 2.203-5.245 3.41-8.565 3.41-7.483 0-13.412-6.19-13.412-14.006 0-7.736 5.929-13.9 13.412-13.9zm-115.706 0c7.984 0 14.097 6.19 14.097 13.848 0 7.815-6.14 14.057-14.097 14.057-7.932 0-14.071-6.242-14.071-14.057 0-7.658 6.113-13.848 14.07-13.848zM60.458.015c5.533.43 7.149 8.698 4.747 20.066-1.634 7.734-4.577 14.074-8.883 18.74l-.175.184.153.16c2.449 2.467 5.97 3.004 10.102 1.18l.346-.157a2.366 2.366 0 0 1 3.143 1.123 2.345 2.345 0 0 1-1.13 3.128c-6.64 3.116-12.243 2.005-15.959-2.06l-.189-.213-.027.023a26.73 26.73 0 0 1-4.324 2.622l-.582.273c-5.304 2.419-11.076 1.678-15.432-1.914l-.278-.237-.188.157c-3.618 2.931-7.94 4.18-12.127 3.493l-.464-.085a2.35 2.35 0 0 1-1.853-2.765 2.36 2.36 0 0 1 2.778-1.843c2.847.566 5.886-.232 8.538-2.324l.234-.193-.022-.031a19.401 19.401 0 0 1-1.227-2.202l-.22-.475c-4.932-11.06.717-30.424 9.726-30.2 5.526.136 7.49 5.66 6.429 13.184-.894 6.343-3.836 13.61-7.924 19.26l-.443.597.237.196c2.862 2.254 6.477 2.696 9.915 1.264l.354-.154a21.97 21.97 0 0 0 3.995-2.355l.376-.289-.078-.174c-2.035-4.617-2.67-10.917-1.46-18.227l.1-.58.237-1.267c.41-2.085.894-4.026 1.441-5.8l.336-1.046C53.064 3.901 56.56-.287 60.458.015zM12.279 8.192c1.476 0 2.24.76 2.24 2.23v.472c0 1.442-.764 2.229-2.24 2.229H9.83v28.193h2.45c1.476 0 2.24.76 2.24 2.203v.499c0 1.442-.764 2.203-2.24 2.203H2.213C.764 46.22 0 45.46 0 44.018v-.499c0-1.442.764-2.203 2.213-2.203h2.451V13.123h-2.45c-1.45 0-2.214-.787-2.214-2.23v-.471c0-1.47.764-2.23 2.213-2.23zm216.892 0c1.529 0 2.187.656 2.187 2.15v31.236h5.429c1.422 0 2.213.709 2.213 2.099v.393c0 1.39-.79 2.15-2.213 2.15H220.95c-1.37 0-2.187-.76-2.187-2.15v-.393c0-1.39.817-2.099 2.187-2.099h5.402V12.834h-3.294c-1.344 0-2.16-.76-2.16-2.124v-.42c0-1.363.816-2.098 2.16-2.098zM145.43 19.627c1.528 0 2.187.63 2.187 2.15v19.801h5.428c1.423 0 2.214.709 2.214 2.099v.393c0 1.39-.79 2.15-2.214 2.15h-15.836c-1.37 0-2.187-.76-2.187-2.15v-.393c0-1.39.816-2.099 2.187-2.099h5.401V24.27h-3.293c-1.344 0-2.161-.76-2.161-2.124v-.42c0-1.364.817-2.098 2.16-2.098zm-60.896 3.986c-5.218 0-9.012 3.987-9.012 9.206 0 5.429 3.794 9.363 9.012 9.363 5.244 0 9.038-3.934 9.038-9.363 0-5.22-3.794-9.206-9.038-9.206zm116.285.132c-5.007 0-8.96 4.038-8.96 9.126 0 5.193 3.953 9.206 8.96 9.206 3.478 0 6.403-1.574 7.984-4.065V27.836c-1.58-2.544-4.532-4.091-7.984-4.091zm-83.874-.184c-4.954 0-8.854 3.855-8.854 8.76 0 4.983 3.9 8.838 8.854 8.838 3.426 0 6.35-1.521 7.905-3.908v-9.756c-1.555-2.44-4.48-3.934-7.905-3.934zM37.027 11.163c-4.573-.114-9.039 15.194-5.291 23.595l.194.42.243.479.177-.25c3.364-4.918 5.799-11.098 6.548-16.41.721-5.117-.23-7.794-1.87-7.834zm21.23-5.142-.303.415c-.203.295-.41.627-.62.993l-.314.577c-.211.402-.423.84-.634 1.31l-.315.732-.313.782-.155.41-.306.855-.3.904c-.098.31-.196.627-.292.952l-.283.999-.273 1.045-.261 1.09c-.043.186-.085.374-.126.563l-.24 1.157-.226 1.202c-1.05 5.904-.853 10.8.298 14.414l.083.254.23-.275c3.133-3.886 5.353-9.02 6.677-15.286 1.04-4.926 1.233-8.97.693-11.733-.374-1.912-.93-2.66-1.186-2.68-.5-.039-1.138.415-1.835 1.32zm86.329.808c2.345 0 4.269 1.888 4.269 4.196 0 2.334-1.924 4.248-4.27 4.248-2.344 0-4.268-1.914-4.268-4.248 0-2.308 1.924-4.196 4.269-4.196z" fill="#1C00FF" fill-rule="nonzero"/>
</svg>
